<?xml version="1.0" encoding="UTF-8"?>
<svg id="Layer_2" data-name="Layer 2" xmlns="http://www.w3.org/2000/svg" viewBox="0 0 49.17 43.76">
  <defs>
    <style>
      .cls-1 {
        fill: #1b396a;
      }

      .cls-2 {
        fill: #63c3e8;
      }
    </style>
  </defs>
  <g id="Layer_2-2" data-name="Layer 2">
    <path class="cls-1" d="m7.85,36.64c0-.41.33-.74.74-.74h22.35c4.99,0,8.7-2.7,9.15-7.37.48-4.95.53-8.65,0-13.6-.48-4.53-4.42-7.08-9.15-7.08H8.59c-.41,0-.74-.33-.74-.74V.7c0-.39.34-.7.75-.7h23.05c8.34,0,15.36,4.66,16.76,12.46,1.05,5.88,1,12.64,0,18.54-1.35,7.99-8.17,12.76-16.76,12.76H8.6c-.42,0-.75-.32-.75-.7v-6.42Z"/>
    <path class="cls-1" d="m8.03,26.09c0-4.49,3.64-8.14,8.14-8.14h7.28c.41,0,.75.34.75.75v6.36c0,.41-.34.75-.75.75h-6.53c-.41,0-.75.34-.75.75v6.44c0,.41-.34.75-.75.75h-6.64c-.41,0-.75-.34-.75-.75v-6.9Z"/>
    <path class="cls-2" d="m16.16,15.85v-5.08c0-.41-.34-.75-.75-.75h-6.64c-.41,0-.75.34-.75.75v6.44c0,.41-.34.75-.75.75H.75c-.41,0-.75.34-.75.75v6.36c0,.41.34.75.75.75h5.22c.27,0,.49-.21.51-.49.38-4.84,4.31-8.7,9.19-8.94.28-.01.49-.25.49-.53"/>
  </g>
</svg>