<?xml version="1.0" encoding="UTF-8"?>
<svg id="Layer_2" data-name="Layer 2" xmlns="http://www.w3.org/2000/svg" viewBox="0 0 183.99 62.99">
  <defs>
    <style>
      .cls-1 {
        fill: #64c4e8;
      }

      .cls-2 {
        fill: #636466;
      }

      .cls-3 {
        fill: #1b3a6a;
      }
    </style>
  </defs>
  <g id="text">
    <g>
      <path class="cls-3" d="m183.24,0h-6.88c-.3,0-.57.17-.69.42l-10.73,16.33c-.18.38-.58.59-1.03.59-.45,0-.85-.21-1.03-.59L152.15.42c-.12-.26-.39-.42-.69-.42h-6.88c-.42,0-.75.31-.75.7v42.37c0,.38.34.7.75.7h6.81c.41,0,.75-.32.75-.7V15.76c0-.34.26-.65.63-.71.05-.01.1-.02.16-.02.32,0,.6.17.73.44l7.12,10.41c.12.26.39.42.69.42h4.88c.3,0,.57-.16.69-.42l7.12-10.41c.13-.27.41-.44.73-.44.06,0,.11,0,.16.02.37.07.63.37.63.71v27.3c0,.38.34.7.75.7h6.81c.42,0,.75-.32.75-.7V.7C183.99.31,183.66,0,183.24,0"/>
      <path class="cls-3" d="m99.53,43.76c.41,0,.75-.32.75-.7v-18.38c0-.17.05-.35.14-.51L116.06,1.03c.13-.22.12-.48-.01-.69-.14-.21-.38-.34-.65-.34h-6.89c-.28,0-.54.14-.67.37l-10.79,16.43c-.2.34-.58.55-1,.55s-.8-.21-.99-.55L84.27.37c-.13-.23-.39-.37-.66-.37h-6.89c-.27,0-.51.13-.65.34-.14.21-.14.47-.01.69l15.63,23.15c.09.16.14.33.14.51v18.38c0,.38.34.7.75.7h6.95Z"/>
      <path class="cls-3" d="m7.85,36.64c0-.41.33-.74.74-.74h22.35c4.99,0,8.7-2.7,9.15-7.37.48-4.95.53-8.65,0-13.6-.48-4.53-4.42-7.08-9.15-7.08H8.59c-.41,0-.74-.33-.74-.74V.7C7.85.31,8.18,0,8.6,0h23.05C39.99,0,47.01,4.66,48.4,12.46c1.05,5.88,1,12.64,0,18.54-1.35,7.99-8.17,12.76-16.76,12.76H8.6c-.42,0-.75-.32-.75-.7v-6.42Z"/>
      <path class="cls-2" d="m17.76,57.55c-.09-1.66-.19-3.66-.18-5.15h-.05c-.41,1.4-.9,2.88-1.5,4.53l-2.11,5.79h-1.17l-1.93-5.68c-.57-1.68-1.04-3.22-1.38-4.64h-.04c-.04,1.49-.12,3.49-.23,5.27l-.32,5.11h-1.47l.83-11.93h1.96l2.03,5.77c.5,1.47.9,2.78,1.2,4.02h.05c.3-1.2.73-2.51,1.26-4.02l2.12-5.77h1.96l.74,11.93h-1.5l-.3-5.24Z"/>
      <path class="cls-2" d="m22.94,58.79c.04,2.11,1.38,2.97,2.94,2.97,1.11,0,1.79-.19,2.37-.44l.27,1.12c-.55.25-1.49.53-2.85.53-2.64,0-4.21-1.73-4.21-4.32s1.52-4.62,4.02-4.62c2.8,0,3.54,2.46,3.54,4.03,0,.32-.04.57-.05.73h-6.02Zm4.57-1.11c.02-.99-.41-2.53-2.16-2.53-1.58,0-2.27,1.45-2.39,2.53h4.55Z"/>
      <path class="cls-2" d="m38.43,50.23v10.35c0,.76.02,1.63.07,2.21h-1.4l-.07-1.49h-.04c-.48.96-1.52,1.68-2.92,1.68-2.07,0-3.66-1.75-3.66-4.35-.02-2.85,1.75-4.6,3.84-4.6,1.31,0,2.19.62,2.58,1.31h.04v-5.11h1.56Zm-1.56,7.49c0-.19-.02-.46-.07-.65-.23-.99-1.08-1.81-2.25-1.81-1.61,0-2.57,1.42-2.57,3.31,0,1.73.85,3.17,2.53,3.17,1.04,0,2-.69,2.28-1.86.05-.21.07-.42.07-.67v-1.49Z"/>
      <path class="cls-2" d="m42.83,51.82c.02.53-.37.96-.99.96-.55,0-.94-.42-.94-.96s.41-.97.97-.97.96.42.96.97m-1.73,2.41h1.56v8.57h-1.56v-8.57Z"/>
      <path class="cls-2" d="m51.44,62.47c-.41.21-1.31.5-2.46.5-2.58,0-4.27-1.75-4.27-4.37s1.81-4.55,4.6-4.55c.92,0,1.73.23,2.16.44l-.35,1.2c-.37-.21-.96-.41-1.81-.41-1.96,0-3.03,1.45-3.03,3.24,0,1.98,1.27,3.2,2.97,3.2.88,0,1.47-.23,1.91-.42l.27,1.17Z"/>
      <path class="cls-2" d="m58.09,62.79l-.12-1.08h-.05c-.48.67-1.4,1.27-2.62,1.27-1.73,0-2.62-1.22-2.62-2.46,0-2.07,1.84-3.2,5.15-3.19v-.18c0-.71-.19-1.98-1.95-1.98-.8,0-1.63.25-2.23.64l-.35-1.03c.71-.46,1.73-.76,2.81-.76,2.62,0,3.26,1.79,3.26,3.5v3.2c0,.74.04,1.47.14,2.05h-1.42Zm-.23-4.37c-1.7-.04-3.63.27-3.63,1.93,0,1.01.67,1.49,1.47,1.49,1.11,0,1.82-.71,2.07-1.43.05-.16.09-.34.09-.5v-1.49Z"/>
      <rect class="cls-2" x="61.97" y="50.23" width="1.56" height="12.56"/>
      <path class="cls-2" d="m78.46,62.4c-.57.28-1.7.57-3.15.57-3.36,0-5.89-2.12-5.89-6.03s2.53-6.27,6.23-6.27c1.49,0,2.42.32,2.83.53l-.37,1.26c-.58-.28-1.42-.5-2.41-.5-2.8,0-4.65,1.79-4.65,4.92,0,2.92,1.68,4.8,4.58,4.8.94,0,1.89-.19,2.51-.5l.32,1.22Z"/>
      <path class="cls-2" d="m81.1,58.79c.04,2.11,1.38,2.97,2.94,2.97,1.11,0,1.79-.19,2.37-.44l.27,1.12c-.55.25-1.49.53-2.85.53-2.64,0-4.21-1.73-4.21-4.32s1.52-4.62,4.02-4.62c2.8,0,3.54,2.46,3.54,4.03,0,.32-.04.57-.05.73h-6.02Zm4.57-1.11c.02-.99-.41-2.53-2.16-2.53-1.58,0-2.27,1.45-2.39,2.53h4.55Z"/>
      <path class="cls-2" d="m89.18,56.54c0-.88-.02-1.61-.07-2.32h1.38l.09,1.42h.04c.42-.81,1.42-1.61,2.83-1.61,1.19,0,3.03.71,3.03,3.65v5.11h-1.56v-4.94c0-1.38-.51-2.53-1.98-2.53-1.03,0-1.82.73-2.09,1.59-.07.19-.11.46-.11.73v5.15h-1.56v-6.25Z"/>
      <path class="cls-2" d="m100.9,51.77v2.46h2.23v1.19h-2.23v4.62c0,1.06.3,1.66,1.17,1.66.41,0,.71-.05.9-.11l.07,1.17c-.3.12-.78.21-1.38.21-.73,0-1.31-.23-1.68-.65-.44-.46-.6-1.22-.6-2.23v-4.67h-1.33v-1.19h1.33v-2.05l1.52-.41Z"/>
      <path class="cls-2" d="m105.73,58.79c.04,2.11,1.38,2.97,2.94,2.97,1.11,0,1.79-.19,2.37-.44l.27,1.12c-.55.25-1.49.53-2.85.53-2.64,0-4.21-1.73-4.21-4.32s1.52-4.62,4.02-4.62c2.8,0,3.54,2.46,3.54,4.03,0,.32-.04.57-.05.73h-6.02Zm4.57-1.11c.02-.99-.41-2.53-2.16-2.53-1.58,0-2.27,1.45-2.39,2.53h4.55Z"/>
      <path class="cls-2" d="m113.82,56.9c0-1.01-.02-1.88-.07-2.67h1.36l.05,1.68h.07c.39-1.15,1.33-1.88,2.37-1.88.18,0,.3.02.44.05v1.47c-.16-.04-.32-.05-.53-.05-1.1,0-1.88.83-2.09,2-.04.21-.07.46-.07.73v4.57h-1.54v-5.89Z"/>
      <path class="cls-2" d="m126.69,62.79l-3.89-11.93h1.66l1.86,5.88c.51,1.61.96,3.06,1.27,4.46h.04c.34-1.38.83-2.88,1.36-4.44l2.02-5.89h1.65l-4.27,11.93h-1.7Z"/>
      <path class="cls-2" d="m135.43,51.82c.02.53-.37.96-.99.96-.55,0-.94-.42-.94-.96s.41-.97.97-.97.96.42.96.97m-1.73,2.41h1.56v8.57h-1.56v-8.57Z"/>
      <path class="cls-2" d="m138.79,58.79c.04,2.11,1.38,2.97,2.94,2.97,1.11,0,1.79-.19,2.37-.44l.27,1.12c-.55.25-1.49.53-2.85.53-2.64,0-4.21-1.73-4.21-4.32s1.52-4.62,4.02-4.62c2.8,0,3.54,2.46,3.54,4.03,0,.32-.04.57-.05.73h-6.02Zm4.57-1.11c.02-.99-.41-2.53-2.16-2.53-1.58,0-2.27,1.45-2.39,2.53h4.55Z"/>
      <path class="cls-2" d="m148.76,51.77v2.46h2.23v1.19h-2.23v4.62c0,1.06.3,1.66,1.17,1.66.41,0,.71-.05.9-.11l.07,1.17c-.3.12-.78.21-1.38.21-.73,0-1.31-.23-1.68-.65-.44-.46-.6-1.22-.6-2.23v-4.67h-1.33v-1.19h1.33v-2.05l1.52-.41Z"/>
      <path class="cls-2" d="m152.83,56.54c0-.88-.02-1.61-.07-2.32h1.38l.09,1.42h.04c.42-.81,1.42-1.61,2.83-1.61,1.19,0,3.03.71,3.03,3.65v5.11h-1.56v-4.94c0-1.38-.51-2.53-1.98-2.53-1.03,0-1.82.73-2.09,1.59-.07.19-.11.46-.11.73v5.15h-1.56v-6.25Z"/>
      <path class="cls-2" d="m167.48,62.79l-.12-1.08h-.05c-.48.67-1.4,1.27-2.62,1.27-1.73,0-2.62-1.22-2.62-2.46,0-2.07,1.84-3.2,5.15-3.19v-.18c0-.71-.19-1.98-1.95-1.98-.8,0-1.63.25-2.23.64l-.35-1.03c.71-.46,1.73-.76,2.81-.76,2.62,0,3.26,1.79,3.26,3.5v3.2c0,.74.04,1.47.14,2.05h-1.42Zm-.23-4.37c-1.7-.04-3.63.27-3.63,1.93,0,1.01.67,1.49,1.47,1.49,1.11,0,1.82-.71,2.07-1.43.05-.16.09-.34.09-.5v-1.49Z"/>
      <path class="cls-2" d="m171.36,56.54c0-.88-.02-1.61-.07-2.32h1.36l.07,1.38h.05c.48-.81,1.27-1.58,2.69-1.58,1.17,0,2.05.71,2.42,1.72h.04c.27-.48.6-.85.96-1.11.51-.39,1.08-.6,1.89-.6,1.13,0,2.81.74,2.81,3.72v5.04h-1.52v-4.85c0-1.65-.6-2.64-1.86-2.64-.89,0-1.58.65-1.84,1.42-.07.21-.12.5-.12.78v5.29h-1.52v-5.13c0-1.36-.6-2.35-1.79-2.35-.97,0-1.68.78-1.93,1.56-.09.23-.12.5-.12.76v5.17h-1.52v-6.25Z"/>
      <path class="cls-3" d="m8.03,26.09c0-4.49,3.64-8.14,8.14-8.14h7.28c.41,0,.75.34.75.75v6.36c0,.41-.34.75-.75.75h-6.53c-.41,0-.75.34-.75.75v6.44c0,.41-.34.75-.75.75h-6.64c-.41,0-.75-.34-.75-.75v-6.9Z"/>
      <path class="cls-1" d="m16.16,15.85v-5.08c0-.41-.34-.75-.75-.75h-6.64c-.41,0-.75.34-.75.75v6.44c0,.41-.34.75-.75.75H.75c-.41,0-.75.34-.75.75v6.36c0,.41.34.75.75.75h5.22c.27,0,.49-.21.51-.49.38-4.84,4.31-8.7,9.19-8.94.28-.01.49-.25.49-.53"/>
    </g>
  </g>
</svg>